<svg xmlns="http://www.w3.org/2000/svg" width="81" height="80" viewBox="0 0 80 80">
  <title>Cute Pink Light Theme Icon</title>
  <!-- icon licensed to Ingo Steinke by flaticon.com -->
    <path fill="#F26D90" d="M 29.105469 50.113281 C 28.6875 49.121094 27.714844 48.472656 26.636719 48.476562 C 25.558594 48.480469 24.589844 49.132812 24.179688 50.128906 L 20.726562 58.695312 L 19.707031 61.144531 C 18.75 63.472656 18.941406 66.121094 20.230469 68.285156 C 21.410156 70.316406 23.488281 71.660156 25.820312 71.902344 C 26.09375 71.929688 26.371094 71.945312 26.644531 71.945312 C 26.917969 71.945312 27.191406 71.929688 27.464844 71.902344 C 29.800781 71.660156 31.878906 70.316406 33.0625 68.285156 C 34.347656 66.121094 34.542969 63.472656 33.582031 61.144531 Z M 30.769531 66.921875 C 30.019531 68.226562 28.6875 69.089844 27.191406 69.25 C 26.828125 69.289062 26.460938 69.289062 26.09375 69.25 C 24.601562 69.089844 23.269531 68.226562 22.519531 66.921875 C 21.660156 65.480469 21.53125 63.71875 22.167969 62.164062 L 26.640625 51.125 L 30.105469 59.71875 L 31.121094 62.164062 C 31.761719 63.71875 31.628906 65.480469 30.769531 66.921875 Z M 30.769531 66.921875 "/>
    <path fill="#F26D90" d="M 7.992188 45.296875 C 7.257812 45.296875 6.660156 45.894531 6.660156 46.632812 L 6.660156 47.964844 C 6.660156 48.699219 7.257812 49.296875 7.992188 49.296875 C 8.730469 49.296875 9.324219 48.699219 9.324219 47.964844 L 9.324219 46.632812 C 9.324219 45.894531 8.730469 45.296875 7.992188 45.296875 Z M 7.992188 45.296875 "/>
    <path fill="#F4B4CC" d="M 7.992188 51.960938 C 7.257812 51.960938 6.660156 52.558594 6.660156 53.292969 L 6.660156 70.613281 C 6.660156 71.347656 7.257812 71.945312 7.992188 71.945312 C 8.730469 71.945312 9.324219 71.347656 9.324219 70.613281 L 9.324219 53.292969 C 9.324219 52.558594 8.730469 51.960938 7.992188 51.960938 Z M 7.992188 51.960938 "/>
    <path fill="#F14874" d="M 72.488281 43.269531 C 69.222656 41.589844 66.402344 40.101562 65.378906 36.824219 L 71.453125 30.75 C 71.953125 30.25 72.234375 29.570312 72.234375 28.863281 C 72.234375 28.15625 71.953125 27.480469 71.453125 26.980469 L 62.976562 18.5 C 62.355469 17.878906 61.464844 17.605469 60.601562 17.765625 L 48.964844 1.140625 C 48.511719 0.496094 47.796875 0.0820312 47.011719 0.0117188 C 46.226562 -0.0546875 45.453125 0.226562 44.894531 0.78125 L 29.773438 15.90625 C 28.933594 16.75 28.753906 18.042969 29.328125 19.085938 L 31.285156 22.609375 L 27.761719 20.648438 C 26.71875 20.078125 25.425781 20.257812 24.582031 21.09375 L 20.765625 24.914062 C 20.597656 25.082031 20.457031 25.273438 20.34375 25.480469 C 14.546875 25.800781 0 27.085938 0 31.976562 L 0 37.304688 C 0.0429688 38.265625 0.539062 39.148438 1.332031 39.6875 L 1.332031 73.527344 C 1.339844 73.601562 1.355469 73.675781 1.378906 73.75 L 1.378906 73.765625 C 1.398438 73.886719 1.433594 74.003906 1.480469 74.113281 C 3.078125 78.683594 17.761719 79.9375 26.644531 79.9375 C 36.046875 79.9375 51.957031 78.535156 51.957031 73.277344 L 51.957031 50.242188 L 56.804688 45.398438 C 60.082031 46.417969 61.570312 49.242188 63.25 52.507812 C 64.125 54.390625 65.222656 56.160156 66.515625 57.789062 C 67.6875 59.152344 69.378906 59.960938 71.175781 60.011719 C 71.257812 60.015625 71.339844 60.019531 71.421875 60.019531 C 73.207031 60.015625 74.917969 59.308594 76.183594 58.046875 L 78.03125 56.199219 C 79.351562 54.875 80.0625 53.066406 79.996094 51.195312 C 79.941406 49.398438 79.136719 47.707031 77.769531 46.53125 C 76.144531 45.242188 74.371094 44.144531 72.488281 43.269531 Z M 69.570312 28.863281 L 48.84375 49.589844 L 40.367188 41.109375 L 61.09375 20.386719 Z M 3.449219 37.925781 C 3.148438 37.773438 2.878906 37.5625 2.664062 37.300781 L 2.664062 37.304688 L 2.664062 35.21875 C 3.191406 35.476562 3.730469 35.699219 4.285156 35.890625 L 4.34375 35.910156 L 4.347656 35.914062 C 9.054688 37.617188 17.382812 38.636719 26.644531 38.636719 C 29.292969 38.636719 31.941406 38.542969 34.527344 38.367188 L 37.75 40.621094 C 37.742188 40.660156 37.746094 40.699219 37.738281 40.738281 C 34.054688 41.117188 30.351562 41.304688 26.644531 41.300781 C 16.316406 41.300781 6.785156 39.917969 3.449219 37.925781 Z M 27.3125 33.316406 L 30.988281 35.886719 C 29.546875 35.941406 28.097656 35.972656 26.644531 35.972656 C 21.082031 36.019531 15.523438 35.574219 10.039062 34.640625 C 15.523438 33.707031 21.082031 33.261719 26.644531 33.308594 C 26.871094 33.3125 27.09375 33.3125 27.3125 33.316406 Z M 26.46875 22.980469 L 34.066406 27.203125 C 34.585938 27.492188 35.234375 27.398438 35.65625 26.980469 C 36.078125 26.558594 36.167969 25.910156 35.878906 25.390625 L 31.65625 17.789062 L 37.449219 11.996094 L 45.9375 22.179688 C 46.238281 22.558594 46.71875 22.742188 47.195312 22.664062 C 47.671875 22.585938 48.070312 22.253906 48.234375 21.800781 C 48.398438 21.347656 48.300781 20.839844 47.984375 20.472656 L 39.34375 10.105469 L 46.78125 2.667969 L 58.417969 19.292969 L 39.273438 38.4375 L 22.648438 26.796875 Z M 20.355469 28.15625 C 20.550781 28.480469 20.808594 28.761719 21.121094 28.980469 L 23.554688 30.683594 C 15.8125 30.878906 8.992188 31.792969 4.769531 33.222656 C 3.984375 32.988281 3.265625 32.574219 2.664062 32.015625 L 2.664062 32.007812 C 3.070312 30.945312 8.652344 28.792969 20.355469 28.15625 Z M 26.644531 77.273438 C 12.542969 77.273438 4.417969 74.664062 3.996094 73.261719 L 3.996094 41.109375 C 8.589844 42.871094 17.066406 43.964844 26.644531 43.964844 C 30.703125 43.972656 34.761719 43.753906 38.796875 43.308594 L 46.960938 51.472656 C 47.457031 51.972656 48.136719 52.253906 48.84375 52.253906 C 48.996094 52.25 49.144531 52.234375 49.292969 52.207031 L 49.292969 73.257812 C 48.882812 74.660156 40.761719 77.273438 26.644531 77.273438 Z M 76.144531 54.316406 L 74.296875 56.164062 C 73.496094 56.960938 72.402344 57.390625 71.277344 57.351562 C 70.21875 57.320312 69.222656 56.851562 68.53125 56.050781 C 67.378906 54.578125 66.402344 52.980469 65.621094 51.289062 C 64.078125 48.289062 62.359375 44.953125 58.882812 43.316406 L 63.300781 38.902344 C 64.933594 42.378906 68.269531 44.09375 71.269531 45.636719 C 72.960938 46.421875 74.558594 47.398438 76.03125 48.550781 C 76.832031 49.242188 77.304688 50.238281 77.332031 51.292969 C 77.371094 52.421875 76.941406 53.515625 76.144531 54.316406 Z M 76.144531 54.316406 "/>
    <path fill="#F4B4CC" d="M 46.019531 39.226562 L 45.078125 40.167969 C 44.730469 40.503906 44.59375 40.996094 44.714844 41.460938 C 44.839844 41.925781 45.199219 42.289062 45.664062 42.414062 C 46.128906 42.535156 46.625 42.394531 46.960938 42.050781 L 47.902344 41.109375 C 48.410156 40.585938 48.40625 39.753906 47.890625 39.238281 C 47.375 38.722656 46.539062 38.714844 46.019531 39.226562 Z M 46.019531 39.226562 "/>
    <path fill="#F26D90" d="M 60.148438 25.09375 L 49.785156 35.457031 C 49.441406 35.792969 49.304688 36.289062 49.425781 36.753906 C 49.546875 37.21875 49.910156 37.582031 50.375 37.703125 C 50.839844 37.824219 51.335938 37.6875 51.671875 37.34375 L 62.03125 26.980469 C 62.378906 26.644531 62.515625 26.148438 62.394531 25.683594 C 62.273438 25.21875 61.910156 24.855469 61.445312 24.734375 C 60.976562 24.613281 60.484375 24.75 60.148438 25.09375 Z M 60.148438 25.09375 "/>
  </svg>